<?xml version="1.0" encoding="UTF-8" standalone="no"?>
<svg width="923px" height="415px" viewBox="0 0 923 415" version="1.1" xmlns="http://www.w3.org/2000/svg" xmlns:xlink="http://www.w3.org/1999/xlink">
    <!-- Generator: Sketch 50.2 (55047) - http://www.bohemiancoding.com/sketch -->
    <title>Important Quotes</title>
    <desc>Created with Sketch.</desc>
    <defs></defs>
    <g id="Important-Quotes" stroke="none" stroke-width="1" fill="none" fill-rule="evenodd">
        <text id="They-should-have-a-f" font-family="Avenir-Book, Avenir" font-size="16" font-weight="normal" line-spacing="23" letter-spacing="0.09148354" fill="#4A4A4A">
            <tspan x="62" y="51">They should have a feature on the app so that it </tspan>
            <tspan x="62" y="74">gives you the wait time and sets a timer for you </tspan>
            <tspan x="62" y="97">so you can leave the health center and come </tspan>
            <tspan x="62" y="120">back in time instead of waiting at the health </tspan>
            <tspan x="62" y="143">center the whole time.</tspan>
        </text>
        <text id="I-wish-there-was-a-w" font-family="Avenir-Book, Avenir" font-size="16" font-weight="normal" line-spacing="23" letter-spacing="0.09148354" fill="#4A4A4A">
            <tspan x="63" y="218">I wish there was a way they could save my </tspan>
            <tspan x="63" y="241">information at the check in computers so I don't </tspan>
            <tspan x="63" y="264">have to type it in each time.</tspan>
        </text>
        <text id="I-would-want-to-be-a" font-family="Avenir-Book, Avenir" font-size="16" font-weight="normal" line-spacing="23" letter-spacing="0.09148354" fill="#4A4A4A">
            <tspan x="508" y="51">I would want to be able to pay on the spot [at the </tspan>
            <tspan x="508" y="74">pharmacy] rather than the portal and forget about it </tspan>
            <tspan x="508" y="97">and then get a registration hold. Right now, I </tspan>
            <tspan x="508" y="120">actually have a registration hold because of that.</tspan>
        </text>
        <text id="There’s-miscommunica" font-family="Avenir-Book, Avenir" font-size="16" font-weight="normal" line-spacing="23" letter-spacing="0.09148354" fill="#4A4A4A">
            <tspan x="510" y="205">There’s miscommunication from the doctors to the </tspan>
            <tspan x="510" y="228">athletic center. The athletic training staff would </tspan>
            <tspan x="510" y="251">always have to be constantly calling the health </tspan>
            <tspan x="510" y="274">center for my results.</tspan>
        </text>
        <text id="The-main-reason-I-do" font-family="Avenir-Book, Avenir" font-size="16" font-weight="normal" line-spacing="23" letter-spacing="0.09148354" fill="#4A4A4A">
            <tspan x="184" y="361">The main reason I don’t [make appointments] is because I would have to know the </tspan>
            <tspan x="184" y="384">number and talk to someone. If I knew it was online I would.</tspan>
        </text>
        <path d="M49.2900302,38.662116 C49.2900302,39.3538146 49.6918389,39.721274 50.4954683,39.7645051 L51.7643505,39.8293515 C52.6102761,39.8725827 53.3610239,40.2832726 54.0166163,41.0614334 C54.6722087,41.8395943 55,42.7258198 55,43.7201365 C55,44.930609 54.5770435,45.946526 53.7311178,46.7679181 C52.8851921,47.5893101 51.8278009,48 50.5589124,48 C49.0785424,48 47.8625425,47.4055805 46.9108761,46.2167235 C45.9592097,45.0278666 45.4833837,43.5039911 45.4833837,41.6450512 C45.4833837,38.1865584 46.8156966,34.6416564 49.4803625,31.0102389 C50.4531771,29.6700729 51.2990901,29 52.0181269,29 C52.8217563,29 53.223565,29.4323051 53.223565,30.2969283 C53.223565,30.6427776 52.9909389,31.1183132 52.5256798,31.7235495 C51.3836801,33.1934089 50.432028,34.9442447 49.6706949,36.9761092 C49.4169172,37.6678078 49.2900302,38.2298044 49.2900302,38.662116 Z M37.7432024,38.662116 C37.7432024,39.3538146 38.1450111,39.721274 38.9486405,39.7645051 L40.2175227,39.8293515 C41.1057446,39.8725827 41.8776402,40.2832726 42.5332326,41.0614334 C43.188825,41.8395943 43.5166163,42.7258198 43.5166163,43.7201365 C43.5166163,44.930609 43.0936598,45.946526 42.2477341,46.7679181 C41.4018085,47.5893101 40.3444172,48 39.0755287,48 C37.5951588,48 36.3791588,47.4055805 35.4274924,46.2167235 C34.4758261,45.0278666 34,43.5039911 34,41.6450512 C34,38.1865584 35.332313,34.6416564 37.9969789,31.0102389 C38.9697934,29.6700729 39.8157064,29 40.5347432,29 C41.3383726,29 41.7401813,29.4323051 41.7401813,30.2969283 C41.7401813,30.6427776 41.5075552,31.1183132 41.0422961,31.7235495 C40.1963704,32.8043285 39.4350487,34.0580133 38.7583082,35.4846416 C38.0815676,36.9112699 37.7432024,37.9704175 37.7432024,38.662116 Z" id="“" fill="#90A8D8"></path>
        <path d="M49.2900302,206.662116 C49.2900302,207.353815 49.6918389,207.721274 50.4954683,207.764505 L51.7643505,207.829352 C52.6102761,207.872583 53.3610239,208.283273 54.0166163,209.061433 C54.6722087,209.839594 55,210.72582 55,211.720137 C55,212.930609 54.5770435,213.946526 53.7311178,214.767918 C52.8851921,215.58931 51.8278009,216 50.5589124,216 C49.0785424,216 47.8625425,215.40558 46.9108761,214.216724 C45.9592097,213.027867 45.4833837,211.503991 45.4833837,209.645051 C45.4833837,206.186558 46.8156966,202.641656 49.4803625,199.010239 C50.4531771,197.670073 51.2990901,197 52.0181269,197 C52.8217563,197 53.223565,197.432305 53.223565,198.296928 C53.223565,198.642778 52.9909389,199.118313 52.5256798,199.723549 C51.3836801,201.193409 50.432028,202.944245 49.6706949,204.976109 C49.4169172,205.667808 49.2900302,206.229804 49.2900302,206.662116 Z M37.7432024,206.662116 C37.7432024,207.353815 38.1450111,207.721274 38.9486405,207.764505 L40.2175227,207.829352 C41.1057446,207.872583 41.8776402,208.283273 42.5332326,209.061433 C43.188825,209.839594 43.5166163,210.72582 43.5166163,211.720137 C43.5166163,212.930609 43.0936598,213.946526 42.2477341,214.767918 C41.4018085,215.58931 40.3444172,216 39.0755287,216 C37.5951588,216 36.3791588,215.40558 35.4274924,214.216724 C34.4758261,213.027867 34,211.503991 34,209.645051 C34,206.186558 35.332313,202.641656 37.9969789,199.010239 C38.9697934,197.670073 39.8157064,197 40.5347432,197 C41.3383726,197 41.7401813,197.432305 41.7401813,198.296928 C41.7401813,198.642778 41.5075552,199.118313 41.0422961,199.723549 C40.1963704,200.804328 39.4350487,202.058013 38.7583082,203.484642 C38.0815676,204.91127 37.7432024,205.970417 37.7432024,206.662116 Z" id="“" fill="#DCECE6"></path>
        <path d="M495.29003,192.662116 C495.29003,193.353815 495.691839,193.721274 496.495468,193.764505 L497.76435,193.829352 C498.610276,193.872583 499.361024,194.283273 500.016616,195.061433 C500.672209,195.839594 501,196.72582 501,197.720137 C501,198.930609 500.577044,199.946526 499.731118,200.767918 C498.885192,201.58931 497.827801,202 496.558912,202 C495.078542,202 493.862543,201.40558 492.910876,200.216724 C491.95921,199.027867 491.483384,197.503991 491.483384,195.645051 C491.483384,192.186558 492.815697,188.641656 495.480363,185.010239 C496.453177,183.670073 497.29909,183 498.018127,183 C498.821756,183 499.223565,183.432305 499.223565,184.296928 C499.223565,184.642778 498.990939,185.118313 498.52568,185.723549 C497.38368,187.193409 496.432028,188.944245 495.670695,190.976109 C495.416917,191.667808 495.29003,192.229804 495.29003,192.662116 Z M483.743202,192.662116 C483.743202,193.353815 484.145011,193.721274 484.94864,193.764505 L486.217523,193.829352 C487.105745,193.872583 487.87764,194.283273 488.533233,195.061433 C489.188825,195.839594 489.516616,196.72582 489.516616,197.720137 C489.516616,198.930609 489.09366,199.946526 488.247734,200.767918 C487.401808,201.58931 486.344417,202 485.075529,202 C483.595159,202 482.379159,201.40558 481.427492,200.216724 C480.475826,199.027867 480,197.503991 480,195.645051 C480,192.186558 481.332313,188.641656 483.996979,185.010239 C484.969793,183.670073 485.815706,183 486.534743,183 C487.338373,183 487.740181,183.432305 487.740181,184.296928 C487.740181,184.642778 487.507555,185.118313 487.042296,185.723549 C486.19637,186.804328 485.435049,188.058013 484.758308,189.484642 C484.081568,190.91127 483.743202,191.970417 483.743202,192.662116 Z" id="“" fill="#90A8D8"></path>
        <path d="M170.29003,347.662116 C170.29003,348.353815 170.691839,348.721274 171.495468,348.764505 L172.76435,348.829352 C173.610276,348.872583 174.361024,349.283273 175.016616,350.061433 C175.672209,350.839594 176,351.72582 176,352.720137 C176,353.930609 175.577044,354.946526 174.731118,355.767918 C173.885192,356.58931 172.827801,357 171.558912,357 C170.078542,357 168.862543,356.40558 167.910876,355.216724 C166.95921,354.027867 166.483384,352.503991 166.483384,350.645051 C166.483384,347.186558 167.815697,343.641656 170.480363,340.010239 C171.453177,338.670073 172.29909,338 173.018127,338 C173.821756,338 174.223565,338.432305 174.223565,339.296928 C174.223565,339.642778 173.990939,340.118313 173.52568,340.723549 C172.38368,342.193409 171.432028,343.944245 170.670695,345.976109 C170.416917,346.667808 170.29003,347.229804 170.29003,347.662116 Z M158.743202,347.662116 C158.743202,348.353815 159.145011,348.721274 159.94864,348.764505 L161.217523,348.829352 C162.105745,348.872583 162.87764,349.283273 163.533233,350.061433 C164.188825,350.839594 164.516616,351.72582 164.516616,352.720137 C164.516616,353.930609 164.09366,354.946526 163.247734,355.767918 C162.401808,356.58931 161.344417,357 160.075529,357 C158.595159,357 157.379159,356.40558 156.427492,355.216724 C155.475826,354.027867 155,352.503991 155,350.645051 C155,347.186558 156.332313,343.641656 158.996979,340.010239 C159.969793,338.670073 160.815706,338 161.534743,338 C162.338373,338 162.740181,338.432305 162.740181,339.296928 C162.740181,339.642778 162.507555,340.118313 162.042296,340.723549 C161.19637,341.804328 160.435049,343.058013 159.758308,344.484642 C159.081568,345.91127 158.743202,346.970417 158.743202,347.662116 Z" id="“" fill="#90A8D8"></path>
        <path d="M495.29003,40.662116 C495.29003,41.3538146 495.691839,41.721274 496.495468,41.7645051 L497.76435,41.8293515 C498.610276,41.8725827 499.361024,42.2832726 500.016616,43.0614334 C500.672209,43.8395943 501,44.7258198 501,45.7201365 C501,46.930609 500.577044,47.946526 499.731118,48.7679181 C498.885192,49.5893101 497.827801,50 496.558912,50 C495.078542,50 493.862543,49.4055805 492.910876,48.2167235 C491.95921,47.0278666 491.483384,45.5039911 491.483384,43.6450512 C491.483384,40.1865584 492.815697,36.6416564 495.480363,33.0102389 C496.453177,31.6700729 497.29909,31 498.018127,31 C498.821756,31 499.223565,31.4323051 499.223565,32.2969283 C499.223565,32.6427776 498.990939,33.1183132 498.52568,33.7235495 C497.38368,35.1934089 496.432028,36.9442447 495.670695,38.9761092 C495.416917,39.6678078 495.29003,40.2298044 495.29003,40.662116 Z M483.743202,40.662116 C483.743202,41.3538146 484.145011,41.721274 484.94864,41.7645051 L486.217523,41.8293515 C487.105745,41.8725827 487.87764,42.2832726 488.533233,43.0614334 C489.188825,43.8395943 489.516616,44.7258198 489.516616,45.7201365 C489.516616,46.930609 489.09366,47.946526 488.247734,48.7679181 C487.401808,49.5893101 486.344417,50 485.075529,50 C483.595159,50 482.379159,49.4055805 481.427492,48.2167235 C480.475826,47.0278666 480,45.5039911 480,43.6450512 C480,40.1865584 481.332313,36.6416564 483.996979,33.0102389 C484.969793,31.6700729 485.815706,31 486.534743,31 C487.338373,31 487.740181,31.4323051 487.740181,32.2969283 C487.740181,32.6427776 487.507555,33.1183132 487.042296,33.7235495 C486.19637,34.8043285 485.435049,36.0580133 484.758308,37.4846416 C484.081568,38.9112699 483.743202,39.9704175 483.743202,40.662116 Z" id="“" fill="#DCECE6"></path>
        <path d="M242.70997,145.337884 C242.70997,144.646185 242.308161,144.278726 241.504532,144.235495 L240.23565,144.170648 C239.389724,144.127417 238.638976,143.727535 237.983384,142.97099 C237.327791,142.214444 237,141.317411 237,140.279863 C237,139.069391 237.422956,138.053474 238.268882,137.232082 C239.114808,136.41069 240.172199,136 241.441088,136 C242.879161,136 244.074013,136.59442 245.02568,137.783276 C245.977346,138.972133 246.453172,140.496009 246.453172,142.354949 C246.453172,145.899904 245.142007,149.444806 242.519637,152.989761 C241.546823,154.329927 240.70091,155 239.981873,155 C239.135947,155 238.712991,154.567695 238.712991,153.703072 C238.712991,153.357222 238.945617,152.881687 239.410876,152.276451 C240.256802,151.195672 241.018124,149.941987 241.694864,148.515358 C242.371605,147.08873 242.70997,146.029583 242.70997,145.337884 Z M254.193353,145.337884 C254.193353,144.646185 253.812693,144.278726 253.05136,144.235495 L251.782477,144.170648 C250.894255,144.127417 250.12236,143.727535 249.466767,142.97099 C248.811175,142.214444 248.483384,141.317411 248.483384,140.279863 C248.483384,139.069391 248.90634,138.053474 249.752266,137.232082 C250.598192,136.41069 251.655583,136 252.924471,136 C254.404841,136 255.620841,136.59442 256.572508,137.783276 C257.524174,138.972133 258,140.496009 258,142.354949 C258,145.856673 256.667687,149.401575 254.003021,152.989761 C252.98791,154.329927 252.141997,155 251.465257,155 C250.661627,155 250.259819,154.567695 250.259819,153.703072 C250.259819,153.357222 250.492445,152.881687 250.957704,152.276451 C251.761333,151.195672 252.501507,149.941987 253.178248,148.515358 C253.854988,147.08873 254.193353,146.029583 254.193353,145.337884 Z" id="”" fill="#90A8D8"></path>
        <path d="M276.70997,265.337884 C276.70997,264.646185 276.308161,264.278726 275.504532,264.235495 L274.23565,264.170648 C273.389724,264.127417 272.638976,263.727535 271.983384,262.97099 C271.327791,262.214444 271,261.317411 271,260.279863 C271,259.069391 271.422956,258.053474 272.268882,257.232082 C273.114808,256.41069 274.172199,256 275.441088,256 C276.879161,256 278.074013,256.59442 279.02568,257.783276 C279.977346,258.972133 280.453172,260.496009 280.453172,262.354949 C280.453172,265.899904 279.142007,269.444806 276.519637,272.989761 C275.546823,274.329927 274.70091,275 273.981873,275 C273.135947,275 272.712991,274.567695 272.712991,273.703072 C272.712991,273.357222 272.945617,272.881687 273.410876,272.276451 C274.256802,271.195672 275.018124,269.941987 275.694864,268.515358 C276.371605,267.08873 276.70997,266.029583 276.70997,265.337884 Z M288.193353,265.337884 C288.193353,264.646185 287.812693,264.278726 287.05136,264.235495 L285.782477,264.170648 C284.894255,264.127417 284.12236,263.727535 283.466767,262.97099 C282.811175,262.214444 282.483384,261.317411 282.483384,260.279863 C282.483384,259.069391 282.90634,258.053474 283.752266,257.232082 C284.598192,256.41069 285.655583,256 286.924471,256 C288.404841,256 289.620841,256.59442 290.572508,257.783276 C291.524174,258.972133 292,260.496009 292,262.354949 C292,265.856673 290.667687,269.401575 288.003021,272.989761 C286.98791,274.329927 286.141997,275 285.465257,275 C284.661627,275 284.259819,274.567695 284.259819,273.703072 C284.259819,273.357222 284.492445,272.881687 284.957704,272.276451 C285.761333,271.195672 286.501507,269.941987 287.178248,268.515358 C287.854988,267.08873 288.193353,266.029583 288.193353,265.337884 Z" id="”" fill="#90A8D8"></path>
        <path d="M276.70997,265.337884 C276.70997,264.646185 276.308161,264.278726 275.504532,264.235495 L274.23565,264.170648 C273.389724,264.127417 272.638976,263.727535 271.983384,262.97099 C271.327791,262.214444 271,261.317411 271,260.279863 C271,259.069391 271.422956,258.053474 272.268882,257.232082 C273.114808,256.41069 274.172199,256 275.441088,256 C276.879161,256 278.074013,256.59442 279.02568,257.783276 C279.977346,258.972133 280.453172,260.496009 280.453172,262.354949 C280.453172,265.899904 279.142007,269.444806 276.519637,272.989761 C275.546823,274.329927 274.70091,275 273.981873,275 C273.135947,275 272.712991,274.567695 272.712991,273.703072 C272.712991,273.357222 272.945617,272.881687 273.410876,272.276451 C274.256802,271.195672 275.018124,269.941987 275.694864,268.515358 C276.371605,267.08873 276.70997,266.029583 276.70997,265.337884 Z M288.193353,265.337884 C288.193353,264.646185 287.812693,264.278726 287.05136,264.235495 L285.782477,264.170648 C284.894255,264.127417 284.12236,263.727535 283.466767,262.97099 C282.811175,262.214444 282.483384,261.317411 282.483384,260.279863 C282.483384,259.069391 282.90634,258.053474 283.752266,257.232082 C284.598192,256.41069 285.655583,256 286.924471,256 C288.404841,256 289.620841,256.59442 290.572508,257.783276 C291.524174,258.972133 292,260.496009 292,262.354949 C292,265.856673 290.667687,269.401575 288.003021,272.989761 C286.98791,274.329927 286.141997,275 285.465257,275 C284.661627,275 284.259819,274.567695 284.259819,273.703072 C284.259819,273.357222 284.492445,272.881687 284.957704,272.276451 C285.761333,271.195672 286.501507,269.941987 287.178248,268.515358 C287.854988,267.08873 288.193353,266.029583 288.193353,265.337884 Z" id="”" fill="#DCECE6"></path>
        <path d="M677.70997,275.337884 C677.70997,274.646185 677.308161,274.278726 676.504532,274.235495 L675.23565,274.170648 C674.389724,274.127417 673.638976,273.727535 672.983384,272.97099 C672.327791,272.214444 672,271.317411 672,270.279863 C672,269.069391 672.422956,268.053474 673.268882,267.232082 C674.114808,266.41069 675.172199,266 676.441088,266 C677.879161,266 679.074013,266.59442 680.02568,267.783276 C680.977346,268.972133 681.453172,270.496009 681.453172,272.354949 C681.453172,275.899904 680.142007,279.444806 677.519637,282.989761 C676.546823,284.329927 675.70091,285 674.981873,285 C674.135947,285 673.712991,284.567695 673.712991,283.703072 C673.712991,283.357222 673.945617,282.881687 674.410876,282.276451 C675.256802,281.195672 676.018124,279.941987 676.694864,278.515358 C677.371605,277.08873 677.70997,276.029583 677.70997,275.337884 Z M689.193353,275.337884 C689.193353,274.646185 688.812693,274.278726 688.05136,274.235495 L686.782477,274.170648 C685.894255,274.127417 685.12236,273.727535 684.466767,272.97099 C683.811175,272.214444 683.483384,271.317411 683.483384,270.279863 C683.483384,269.069391 683.90634,268.053474 684.752266,267.232082 C685.598192,266.41069 686.655583,266 687.924471,266 C689.404841,266 690.620841,266.59442 691.572508,267.783276 C692.524174,268.972133 693,270.496009 693,272.354949 C693,275.856673 691.667687,279.401575 689.003021,282.989761 C687.98791,284.329927 687.141997,285 686.465257,285 C685.661627,285 685.259819,284.567695 685.259819,283.703072 C685.259819,283.357222 685.492445,282.881687 685.957704,282.276451 C686.761333,281.195672 687.501507,279.941987 688.178248,278.515358 C688.854988,277.08873 689.193353,276.029583 689.193353,275.337884 Z" id="”" fill="#90A8D8"></path>
        <path d="M641.70997,386.337884 C641.70997,385.646185 641.308161,385.278726 640.504532,385.235495 L639.23565,385.170648 C638.389724,385.127417 637.638976,384.727535 636.983384,383.97099 C636.327791,383.214444 636,382.317411 636,381.279863 C636,380.069391 636.422956,379.053474 637.268882,378.232082 C638.114808,377.41069 639.172199,377 640.441088,377 C641.879161,377 643.074013,377.59442 644.02568,378.783276 C644.977346,379.972133 645.453172,381.496009 645.453172,383.354949 C645.453172,386.899904 644.142007,390.444806 641.519637,393.989761 C640.546823,395.329927 639.70091,396 638.981873,396 C638.135947,396 637.712991,395.567695 637.712991,394.703072 C637.712991,394.357222 637.945617,393.881687 638.410876,393.276451 C639.256802,392.195672 640.018124,390.941987 640.694864,389.515358 C641.371605,388.08873 641.70997,387.029583 641.70997,386.337884 Z M653.193353,386.337884 C653.193353,385.646185 652.812693,385.278726 652.05136,385.235495 L650.782477,385.170648 C649.894255,385.127417 649.12236,384.727535 648.466767,383.97099 C647.811175,383.214444 647.483384,382.317411 647.483384,381.279863 C647.483384,380.069391 647.90634,379.053474 648.752266,378.232082 C649.598192,377.41069 650.655583,377 651.924471,377 C653.404841,377 654.620841,377.59442 655.572508,378.783276 C656.524174,379.972133 657,381.496009 657,383.354949 C657,386.856673 655.667687,390.401575 653.003021,393.989761 C651.98791,395.329927 651.141997,396 650.465257,396 C649.661627,396 649.259819,395.567695 649.259819,394.703072 C649.259819,394.357222 649.492445,393.881687 649.957704,393.276451 C650.761333,392.195672 651.501507,390.941987 652.178248,389.515358 C652.854988,388.08873 653.193353,387.029583 653.193353,386.337884 Z" id="”" fill="#90A8D8"></path>
        <path d="M878.70997,121.337884 C878.70997,120.646185 878.308161,120.278726 877.504532,120.235495 L876.23565,120.170648 C875.389724,120.127417 874.638976,119.727535 873.983384,118.97099 C873.327791,118.214444 873,117.317411 873,116.279863 C873,115.069391 873.422956,114.053474 874.268882,113.232082 C875.114808,112.41069 876.172199,112 877.441088,112 C878.879161,112 880.074013,112.59442 881.02568,113.783276 C881.977346,114.972133 882.453172,116.496009 882.453172,118.354949 C882.453172,121.899904 881.142007,125.444806 878.519637,128.989761 C877.546823,130.329927 876.70091,131 875.981873,131 C875.135947,131 874.712991,130.567695 874.712991,129.703072 C874.712991,129.357222 874.945617,128.881687 875.410876,128.276451 C876.256802,127.195672 877.018124,125.941987 877.694864,124.515358 C878.371605,123.08873 878.70997,122.029583 878.70997,121.337884 Z M890.193353,121.337884 C890.193353,120.646185 889.812693,120.278726 889.05136,120.235495 L887.782477,120.170648 C886.894255,120.127417 886.12236,119.727535 885.466767,118.97099 C884.811175,118.214444 884.483384,117.317411 884.483384,116.279863 C884.483384,115.069391 884.90634,114.053474 885.752266,113.232082 C886.598192,112.41069 887.655583,112 888.924471,112 C890.404841,112 891.620841,112.59442 892.572508,113.783276 C893.524174,114.972133 894,116.496009 894,118.354949 C894,121.856673 892.667687,125.401575 890.003021,128.989761 C888.98791,130.329927 888.141997,131 887.465257,131 C886.661627,131 886.259819,130.567695 886.259819,129.703072 C886.259819,129.357222 886.492445,128.881687 886.957704,128.276451 C887.761333,127.195672 888.501507,125.941987 889.178248,124.515358 C889.854988,123.08873 890.193353,122.029583 890.193353,121.337884 Z" id="”" fill="#DCECE6"></path>
    </g>
</svg>