<svg xmlns="http://www.w3.org/2000/svg" viewBox="3457 78 33 58.791">
  <defs>
    <style>
      .cls-1 {
        fill: #fff;
      }

      .cls-2 {
        fill: #575757;
      }
    </style>
  </defs>
  <g id="Asset_1" data-name="Asset 1" transform="translate(3457 78.015)">
    <g id="Layer_1" data-name="Layer 1" transform="translate(0 -0.015)">
      <path id="Path_16" data-name="Path 16" class="cls-1" d="M1.56,35.442s29.732-3.765,29.748-16.97c.026-13.665-15.941-3.505-15.941,24.2l-.109,25.641" transform="translate(-1.198 -9.544)"/>
      <path id="Path_17" data-name="Path 17" class="cls-2" d="M16.956,58.776l-5.781-.021.1-25.651c0-2.255.1-4.462.309-6.606A85.86,85.86,0,0,1,.727,28.745L0,23.022A77.447,77.447,0,0,0,12.513,20.2a47.037,47.037,0,0,1,2.416-8.181c2.128-5.277,5.013-9.17,8.13-10.964C26.106-.708,28.4.1,29.5.732c1.6.929,3.512,3.1,3.5,8.186-.016,6.534-5.191,11.791-15.391,15.637a62.483,62.483,0,0,0-.564,8.559ZM26.633,5.768a4.106,4.106,0,0,0-1.858,1.178c-2,1.858-4.181,5.468-5.714,10.724,4.627-2.218,8.162-5.126,8.169-8.764A5.774,5.774,0,0,0,26.633,5.768ZM.365,25.674,0,22.813H0Z" transform="translate(0 0.015)"/>
      <line id="Line_5" data-name="Line 5" class="cls-1" y1="5.022" x2="28.359" transform="translate(1.751 32.585)"/>
      <rect id="Rectangle_31" data-name="Rectangle 31" class="cls-2" width="28.8" height="5.77" transform="translate(1.248 34.766) rotate(-10.04)"/>
    </g>
  </g>
</svg>
