<svg xmlns="http://www.w3.org/2000/svg" viewBox="3812 1124 352 352">
  <defs>
    <style>
      .cls-1 {
        fill: #fff;
        stroke: #d8d8d8;
      }

      .cls-2 {
        fill: #3d4149;
      }

      .cls-2, .cls-3 {
        fill-rule: evenodd;
      }

      .cls-3, .cls-4, .cls-6 {
        fill: none;
      }

      .cls-3, .cls-4 {
        stroke: #3d4149;
        stroke-width: 3.629px;
      }

      .cls-5 {
        stroke: none;
      }
    </style>
  </defs>
  <g id="Group_10" data-name="Group 10" transform="translate(911 290)">
    <g id="Rectangle_6" data-name="Rectangle 6" class="cls-1" transform="translate(2901 834)">
      <rect class="cls-5" width="352" height="352"/>
      <rect class="cls-6" x="0.5" y="0.5" width="351" height="351"/>
    </g>
    <g id="LocalsOwn_logo" transform="translate(2948 978)">
      <g id="Desktop-HD" transform="translate(0 2)">
        <g id="Group-4" transform="translate(0 0)">
          <path id="LocalsOwn" class="cls-2" d="M0,9.663H6.386v27.03H16.532v4.894H0ZM38.379,34.521A7.759,7.759,0,0,0,40.3,28.9a7.733,7.733,0,0,0-1.9-5.6,6.162,6.162,0,0,0-4.6-1.967,6.018,6.018,0,0,0-4.552,1.967A7.884,7.884,0,0,0,27.4,28.918a7.884,7.884,0,0,0,1.857,5.626,5.993,5.993,0,0,0,4.529,1.967A6.175,6.175,0,0,0,38.379,34.521Zm-17.46-5.648a12.464,12.464,0,0,1,3.714-9.422,12.786,12.786,0,0,1,9.217-3.567,12.786,12.786,0,0,1,9.217,3.567,12.464,12.464,0,0,1,3.714,9.422,12.574,12.574,0,0,1-3.737,9.468,12.8,12.8,0,0,1-9.262,3.613A12.469,12.469,0,0,1,20.918,28.872Zm30.973.046a13.059,13.059,0,0,1,3.442-9.468,11.846,11.846,0,0,1,8.923-3.567,12.664,12.664,0,0,1,7.655,2.241,10.844,10.844,0,0,1,4.122,6.357H69.148a4.754,4.754,0,0,0-4.892-3.156,5.149,5.149,0,0,0-4.325,2.035,8.914,8.914,0,0,0-1.563,5.557,8.914,8.914,0,0,0,1.563,5.557,5.149,5.149,0,0,0,4.325,2.035,4.8,4.8,0,0,0,4.892-3.2h6.885a11.4,11.4,0,0,1-4.19,6.312,12.263,12.263,0,0,1-7.587,2.333,11.846,11.846,0,0,1-8.923-3.567A13.059,13.059,0,0,1,51.892,28.918Zm48.728,0a7.379,7.379,0,0,0-1.993-5.466,6.464,6.464,0,0,0-9.308-.023,7.348,7.348,0,0,0-1.97,5.443,7.458,7.458,0,0,0,1.993,5.488,6.386,6.386,0,0,0,9.285.023A7.379,7.379,0,0,0,100.62,28.918Zm-19.748-.046a13.258,13.258,0,0,1,3.352-9.353,11.075,11.075,0,0,1,8.515-3.636,8.766,8.766,0,0,1,7.881,4.3V16.249h6.341V41.587H100.62V37.334a8.873,8.873,0,0,1-7.926,4.619,10.979,10.979,0,0,1-8.447-3.682A13.371,13.371,0,0,1,80.872,28.872ZM115.56,41.587V7.742h6.386V41.587ZM129.14,23.658a6.867,6.867,0,0,1,2.763-5.534,13.188,13.188,0,0,1,14.675-.023,7.816,7.816,0,0,1,2.944,6.014H143q-.272-3.2-3.9-3.2a4.675,4.675,0,0,0-2.808.732,2.36,2.36,0,0,0-1,2.012,2.234,2.234,0,0,0,1.495,2.012,14.546,14.546,0,0,0,3.623,1.143q2.129.412,4.235,1.029a7.954,7.954,0,0,1,3.6,2.2,5.835,5.835,0,0,1,1.495,4.185,6.66,6.66,0,0,1-2.876,5.58,13.62,13.62,0,0,1-14.652.023,7.871,7.871,0,0,1-3.125-6.106h6.522q.362,3.2,4.031,3.2a4.7,4.7,0,0,0,2.853-.8,2.492,2.492,0,0,0,1.087-2.1,2.29,2.29,0,0,0-1.495-2.058,13.917,13.917,0,0,0-3.623-1.166q-2.129-.412-4.235-1.006a7.959,7.959,0,0,1-3.6-2.127A5.487,5.487,0,0,1,129.14,23.658Zm93.7-7.409h6.115l-7.7,25.338h-6.794l-4.3-17.014-4.348,17.014h-6.794l-7.7-25.338h6.432l4.62,19.255,4.62-19.255h6.7l4.529,19.209Zm17.974,0v3.8q2.4-4.162,7.79-4.162a9.253,9.253,0,0,1,7.02,2.859q2.718,2.859,2.718,7.935v14.91H252v-14a6.369,6.369,0,0,0-1.495-4.551,5.346,5.346,0,0,0-4.076-1.578,5.421,5.421,0,0,0-4.1,1.578,6.309,6.309,0,0,0-1.517,4.551v14h-6.386V16.249Z" transform="translate(0 1.291)"/>
          <g id="Group" transform="translate(155.836 0)">
            <path id="Path-2" class="cls-3" d="M15.68,55.23Q0,40.358,0,29c0-.619,0-.516,0-2.239,0-6.91,4.871-15.125,15.68-15.125s16.167,7.989,16.167,15.839Q31.847,40.61,15.68,55.23Z" transform="translate(0 1.941)"/>
            <ellipse id="Oval" class="cls-4" cx="7.785" cy="8.218" rx="7.785" ry="8.218" transform="translate(7.785 22.154)"/>
            <path id="Path-3" class="cls-3" d="M8.914,13.374C6.237,9.95,2,3.574,4.3,2.118s7.83-2.751,7.83,10.013C12.132,13.374,9.621,13.374,8.914,13.374Z" transform="translate(0.607 0.204)"/>
            <path id="Path-3-2" data-name="Path-3" class="cls-3" d="M5.275,0C2.6,3.424-1.643,9.8.663,11.255s7.83,2.751,7.83-10.013C8.492,0,5.981,0,5.275,0Z" transform="translate(27.6 13.578) rotate(180)"/>
            <path id="Path-4" class="cls-3" d="M12.7,13.172Q7.525,0,13.556,0c6.031,0,5.279,4.4,2.213,13.172Q15.77,13.984,12.7,13.172Z" transform="translate(1.719 0)"/>
          </g>
        </g>
      </g>
    </g>
  </g>
</svg>
