<svg xmlns="http://www.w3.org/2000/svg" viewBox="3440 737 352 352">
  <defs>
    <style>
      .cls-1, .cls-3, .cls-4 {
        fill: #fff;
      }

      .cls-1 {
        stroke: #d8d8d8;
      }

      .cls-2 {
        fill: #2dc76d;
      }

      .cls-3 {
        font-size: 36px;
        font-family: Montserrat-Bold, Montserrat;
        font-weight: 700;
        letter-spacing: 0.03em;
      }

      .cls-5 {
        stroke: none;
      }

      .cls-6 {
        fill: none;
      }
    </style>
  </defs>
  <g id="Group_11" data-name="Group 11" transform="translate(2933 27)">
    <g id="Rectangle_7" data-name="Rectangle 7" class="cls-1" transform="translate(507 710)">
      <rect class="cls-5" width="352" height="352"/>
      <rect class="cls-6" x="0.5" y="0.5" width="351" height="351"/>
    </g>
    <rect id="Rectangle_26" data-name="Rectangle 26" class="cls-2" width="352" height="351" transform="translate(507 711)"/>
    <g id="Group_14" data-name="Group 14" transform="translate(0 1)">
      <text id="Poly_Care" data-name="Poly Care" class="cls-3" transform="translate(593 958)"><tspan x="0" y="0">Poly Care</tspan></text>
      <g id="Group_1" data-name="Group 1" transform="translate(626 805.643)">
        <path id="Path_1" data-name="Path 1" class="cls-4" d="M58.958,92.5l.057,6.582a3.322,3.322,0,0,1-4.71,0L9.278,54.032A31.658,31.658,0,1,1,54.05,9.26l2.61,2.61,2.61-2.61a31.651,31.651,0,0,1,49.2,39.211,3.334,3.334,0,0,1-5.646-3.547A24.975,24.975,0,0,0,64.008,13.97l-4.965,4.965a3.322,3.322,0,0,1-4.71,0L49.368,13.97A25,25,0,1,0,14.016,49.322L56.688,91.994l1.5-4.823" transform="translate(0 0)"/>
        <path id="Path_2" data-name="Path 2" class="cls-4" d="M193.116,140.062a47.979,47.979,0,0,0,17.194-10.7,22.642,22.642,0,0,0,6.923-13.619c.567-5.476-1.362-12.4-6.1-15.633A10.316,10.316,0,0,0,202,99.036a3.647,3.647,0,0,0-2.468,4.369c.454,1.674,2.582,3.206,4.369,2.468a2.493,2.493,0,0,1,.426-.142c.142-.028.284-.085.426-.114.113-.028.227-.028.312-.057.511-.142-.028.312-.454.057a8.069,8.069,0,0,0,1.646-.028c.539,0-.624.085-.454-.057a1.657,1.657,0,0,1,.511.113c.142.057.284.085.426.142.766.17-.6-.369-.057-.028.284.17.6.369.88.511-.88-.482.057.057.312.34a4.631,4.631,0,0,1,.482.567c-.567-.709,0,.028.085.17.085.17.2.34.284.511.057.113.567,1.248.312.624a20.451,20.451,0,0,1,1.05,3.859c.284,1.419,0-.6.057.454a5.1,5.1,0,0,0,.057.624c.028.653,0,1.305-.028,1.958,0,.2-.113.88,0,.085-.057.284-.085.567-.142.851a12.579,12.579,0,0,1-.369,1.39c-.142.454-.312.908-.482,1.334.312-.766-.34.681-.482.936-.255.454-.511.908-.794,1.334-.142.2-1.021,1.447-.511.794a23.5,23.5,0,0,1-2.1,2.355,27.253,27.253,0,0,1-2.327,2.1c-.2.17-1.277.993-.6.482-.454.34-.88.653-1.333.965-1.532,1.05-3.121,2.014-4.738,2.922-1.334.738-2.7,1.39-4.086,2.014-.113.057-.255.113-.369.17-.511.255.908-.369.4-.17a4.023,4.023,0,0,0-.511.227c-.17.057-.312.142-.482.2a3.647,3.647,0,0,0-2.468,4.369,3.553,3.553,0,0,0,4.341,2.327Z" transform="translate(-135.123 -70.511)"/>
        <path id="Path_3" data-name="Path 3" class="cls-4" d="M124.945,97.986a10.576,10.576,0,0,0-8.086.48c-5.135,2.456-7.178,9.146-7.263,14.4-.142,10.19,8.37,17.784,16.6,22.441a52.885,52.885,0,0,0,7.575,3.557c-.88-1.129-1.731-2.258-2.61-3.416v31.079c0,4.545,7.093,4.545,7.093,0V135.445a3.692,3.692,0,0,0-2.61-3.416c-.114-.056-.227-.085-.34-.141a1.974,1.974,0,0,0-.369-.141c-.88-.339.4.2.113.056-1.163-.536-2.327-1.044-3.49-1.637a46.425,46.425,0,0,1-4.6-2.682c-.766-.48-1.475-1.016-2.213-1.553-.766-.536.567.48-.17-.113l-.426-.339c-.482-.4-.936-.79-1.39-1.186q-1.107-1.016-2.128-2.117c-.312-.339-.624-.706-.936-1.073-.6-.734.4.593-.142-.2a6.194,6.194,0,0,1-.482-.706,21.17,21.17,0,0,1-1.5-2.71c.369.762-.17-.508-.255-.734-.17-.536-.34-1.1-.454-1.637-.057-.282-.113-.565-.142-.847.113.762.028.226.028.085-.028-.593-.057-1.186-.057-1.778,0-.254.17-1.665.057-.9.142-.847.312-1.694.539-2.541a12.721,12.721,0,0,1,.6-1.75c-.255.649.142-.282.17-.339.085-.169.2-.367.284-.536.142-.254.312-.48.454-.706-.454.706-.057.056.085-.085l.34-.339c.227-.226.993-.649.142-.169.34-.2.738-.4,1.05-.593-.823.565-.085.085.369-.056.142-.056.653-.254.028-.028-.567.2-.057,0,.17,0h.908c1.021.028-.766-.2-.057,0,.2.056.4.085.6.141a3.35,3.35,0,0,1,.567.2c1.787.734,3.887-.79,4.369-2.456.624-2.117-.653-3.7-2.412-4.432Z" transform="translate(-78.499 -69.777)"/>
        <ellipse id="Ellipse_1" data-name="Ellipse 1" class="cls-4" cx="5.05" cy="5.107" rx="5.05" ry="5.107" transform="translate(40.544 27.872)"/>
        <ellipse id="Ellipse_2" data-name="Ellipse 2" class="cls-4" cx="5.05" cy="5.192" rx="5.05" ry="5.192" transform="translate(63.583 27.986)"/>
      </g>
    </g>
  </g>
</svg>
